<svg width="717" height="197" viewBox="0 0 717 197" fill="none" xmlns="http://www.w3.org/2000/svg">
<g clip-path="url(#clip0_550_69440)">
<path d="M50.8507 100.533L148.509 85.094L153.165 75.6591L0 23.9507L38.3524 56.9117L10.7828 196.353L50.8507 100.533Z" fill="#F4FB37"/>
<path d="M167.875 98.0826L70.2168 113.644L65.5605 122.957L218.725 174.787L180.373 141.704L207.942 2.38525L167.875 98.0826Z" fill="#F4FB37"/>
</g>
<path d="M678.362 57.0684C693.586 57.0684 703.805 59.5916 709.02 64.6382C714.235 69.6848 716.842 79.7779 716.842 94.9176V99.7118V102.361V104.632C716.842 108.585 716.758 111.361 716.59 112.959C716.506 114.557 716.043 117.837 715.202 122.8C714.361 127.678 711.459 131.968 706.497 135.669C701.534 139.369 695.31 141.22 687.825 141.22H604.178V57.0684H678.362ZM690.979 99.4595V98.7025C690.979 90.4598 690.053 84.9086 688.203 82.0488C686.353 79.1891 681.39 77.7593 673.316 77.7593H629.789V120.655H672.937C680.843 120.655 685.806 119.183 687.825 116.239C689.927 113.295 690.979 107.702 690.979 99.4595Z" fill="#F4FB37"/>
<path d="M585.309 57.0684V76.2453H517.055V90.628H580.768V107.282H517.055V122.169H585.309V141.22H491.443V57.0684H585.309Z" fill="#F4FB37"/>
<path d="M442.272 57.0684C452.365 57.0684 459.556 59.0449 463.846 62.9981C468.219 66.8671 470.406 73.7641 470.406 83.689C470.406 87.4739 470.196 90.7121 469.775 93.4036C469.355 96.0951 468.514 98.4502 467.252 100.469C465.991 102.403 464.519 103.875 462.836 104.885C461.154 105.81 457.622 107.155 452.239 108.922C458.126 109.679 462.458 111.193 465.234 113.464C468.009 115.651 469.397 119.52 469.397 125.071V141.22H443.407V133.145C443.407 129.024 443.029 125.744 442.272 123.304C441.599 120.865 438.277 119.646 432.305 119.646H389.535V141.22H363.924V57.0684H442.272ZM431.548 99.2072C437.351 99.2072 440.968 98.4922 442.398 97.0624C443.828 95.6325 444.543 92.4364 444.543 87.4739C444.543 84.6983 444.248 82.6376 443.66 81.2919C443.155 79.9461 442.019 79.0209 440.253 78.5163C438.571 78.0116 437.183 77.7172 436.09 77.6331C434.996 77.549 433.693 77.5069 432.179 77.5069H430.16H389.535V99.2072H428.268H431.548Z" fill="#F4FB37"/>
<path d="M312.049 57.0684C324.749 57.0684 333.538 59.129 338.417 63.2504C343.379 67.3718 345.86 75.6565 345.86 88.1047C345.86 99.88 343.926 108.207 340.057 113.085C336.272 117.879 328.282 120.277 316.086 120.277H309.525H269.531V141.22H243.92V57.0684H312.049ZM319.997 88.9879C319.997 84.2777 318.988 81.2078 316.969 79.7779C314.95 78.2639 311.418 77.5069 306.371 77.5069H269.531V99.838H306.75C311.628 99.838 315.034 99.1651 316.969 97.8194C318.988 96.3895 319.997 93.4457 319.997 88.9879Z" fill="#F4FB37"/>
<defs>
<clipPath id="clip0_550_69440">
<rect width="218.719" height="193.968" fill="white" transform="translate(0 2.38574)"/>
</clipPath>
</defs>
</svg>
