<svg width="1080" height="1350" viewBox="0 0 1080 1350" fill="none" xmlns="http://www.w3.org/2000/svg">
<g clip-path="url(#clip0_348_169)">
<g clip-path="url(#clip1_348_169)">
<path d="M-33.768 728.202L811.69 594.5L852 512.794L-474 65L-141.97 350.442L-380.65 1558L-33.768 728.202Z" fill="white" fill-opacity="0.3"/>
<path d="M850.598 513.375L811.021 593.593L-33.9238 727.214L-34.4756 727.301L-34.6904 727.816L-377.745 1548.46L-140.988 350.636L-140.875 350.063L-141.317 349.684L-469.45 67.5918L850.598 513.375Z" stroke="white" stroke-opacity="0.26" stroke-width="2"/>
<path d="M1045.77 835.394L200.31 970.067L160 1050.66L1486 1499.21L1153.97 1212.9L1392.65 7.21252L1045.77 835.394Z" fill="white" fill-opacity="0.3"/>
<path d="M1152.99 1212.71L1152.88 1213.28L1153.32 1213.66L1481.47 1496.62L161.407 1050.08L200.975 970.973L1045.93 836.382L1046.48 836.295L1046.69 835.781L1389.74 16.736L1152.99 1212.71Z" stroke="white" stroke-opacity="0.26" stroke-width="2"/>
</g>
</g>
<defs>
<clipPath id="clip0_348_169">
<rect width="1080" height="1350" fill="white"/>
</clipPath>
<clipPath id="clip1_348_169">
<rect width="1458" height="1293.43" fill="white" transform="translate(-189 200)"/>
</clipPath>
</defs>
</svg>
