<svg width="505" height="141" viewBox="0 0 505 141" fill="none" xmlns="http://www.w3.org/2000/svg">
<g clip-path="url(#clip0_492_5177)">
<path d="M37.3576 70.9735L107.977 59.8091L111.344 52.9865L0.585938 15.5945L28.3197 39.4297L8.3833 140.264L37.3576 70.9735Z" fill="#120C06"/>
<path d="M121.981 69.2017L51.3612 80.4547L47.9941 87.1888L158.752 124.669L131.018 100.746L150.955 6.10352e-05L121.981 69.2017Z" fill="#120C06"/>
</g>
<path d="M220.362 41.9857C229.089 41.9857 235.128 43.4016 238.48 46.2333C241.889 49.0651 243.594 54.7575 243.594 63.3106C243.594 71.4013 242.265 77.1226 239.607 80.4745C237.006 83.7686 231.516 85.4156 223.136 85.4156H218.628H191.149V99.8056H173.551V41.9857H220.362ZM225.823 63.9174C225.823 60.6811 225.13 58.5717 223.743 57.5893C222.356 56.549 219.929 56.0289 216.461 56.0289H191.149V71.3724H216.721C220.073 71.3724 222.414 70.9101 223.743 69.9854C225.13 69.003 225.823 66.9803 225.823 63.9174ZM309.838 41.9857C316.772 41.9857 321.714 43.3438 324.661 46.06C327.666 48.7184 329.169 53.4572 329.169 60.2766C329.169 62.8772 329.024 65.1021 328.735 66.9514C328.446 68.8007 327.868 70.4189 327.001 71.8059C326.135 73.1351 325.123 74.1464 323.967 74.8399C322.812 75.4756 320.384 76.4002 316.686 77.6139C320.731 78.134 323.707 79.1742 325.614 80.7346C327.522 82.2371 328.475 84.8955 328.475 88.7097V99.8056H310.618V94.2577C310.618 91.4259 310.358 89.1721 309.838 87.4961C309.375 85.8202 307.092 84.9822 302.989 84.9822H273.603V99.8056H256.005V41.9857H309.838ZM302.469 70.939C306.457 70.939 308.942 70.4478 309.924 69.4653C310.907 68.4829 311.398 66.2868 311.398 62.8772C311.398 60.9701 311.196 59.5542 310.791 58.6295C310.444 57.7049 309.664 57.0692 308.451 56.7224C307.295 56.3757 306.341 56.1734 305.59 56.1156C304.839 56.0578 303.943 56.0289 302.903 56.0289H301.516H273.603V70.939H300.215H302.469ZM408.118 41.9857V55.1621H361.22V65.0443H404.997V76.4869H361.22V86.7159H408.118V99.8056H343.623V41.9857H408.118ZM472.054 41.9857C482.514 41.9857 489.536 43.7194 493.119 47.1869C496.702 50.6544 498.493 57.5893 498.493 67.9917V71.2857V73.1062V74.6665C498.493 77.3827 498.435 79.2898 498.32 80.3878C498.262 81.4859 497.944 83.7397 497.366 87.1494C496.788 90.5013 494.794 93.4486 491.385 95.9914C487.975 98.5342 483.699 99.8056 478.555 99.8056H421.082V41.9857H472.054ZM480.722 71.1124V70.5923C480.722 64.9287 480.087 61.1145 478.815 59.1496C477.544 57.1847 474.134 56.2023 468.586 56.2023H438.679V85.6757H468.326C473.759 85.6757 477.168 84.6644 478.555 82.6417C480 80.619 480.722 76.7759 480.722 71.1124Z" fill="#120C06"/>
<defs>
<clipPath id="clip0_492_5177">
<rect width="158.162" height="140.264" fill="white" transform="translate(0.585938)"/>
</clipPath>
</defs>
</svg>
